<svg width="120" height="120" viewBox="0 0 120 120" fill="none" xmlns="http://www.w3.org/2000/svg">
<g filter="url(#filter0_d_64_9)">
<rect width="112" height="112" rx="22" fill="white"/>
</g>
<path d="M27.5026 27C26.0027 35.5 25.0027 37.6863 25.0027 49C25.0027 52.5 24.8183 59.2998 27.5026 69.5C30.0026 79 37.0027 86 44.5026 86C53.0026 86 58.5026 82.5 62.0026 75.5C66.1257 67.2538 67.0026 61.5 67.0026 50.5C67.0026 41.8687 67.0026 39 65.0026 26" stroke="black" stroke-width="10" stroke-linecap="round"/>
<path d="M86.0026 43C85.5027 49.5 85.5027 57.5 85.5027 64C85.5027 72.5 86.0026 76.5 87.0026 85.5" stroke="black" stroke-width="10" stroke-linecap="round"/>
<path d="M85.5027 27L86.0027 28" stroke="black" stroke-width="11" stroke-linecap="round"/>
<defs>
<filter id="filter0_d_64_9" x="0" y="0" width="120" height="120" filterUnits="userSpaceOnUse" color-interpolation-filters="sRGB">
<feFlood flood-opacity="0" result="BackgroundImageFix"/>
<feColorMatrix in="SourceAlpha" type="matrix" values="0 0 0 0 0 0 0 0 0 0 0 0 0 0 0 0 0 0 127 0" result="hardAlpha"/>
<feOffset dx="4" dy="4"/>
<feGaussianBlur stdDeviation="2"/>
<feComposite in2="hardAlpha" operator="out"/>
<feColorMatrix type="matrix" values="0 0 0 0 0 0 0 0 0 0 0 0 0 0 0 0 0 0 0.2 0"/>
<feBlend mode="normal" in2="BackgroundImageFix" result="effect1_dropShadow_64_9"/>
<feBlend mode="normal" in="SourceGraphic" in2="effect1_dropShadow_64_9" result="shape"/>
</filter>
</defs>
</svg>
